<?xml version="1.0" encoding="UTF-8"?>
<svg version="1.1" xmlns="http://www.w3.org/2000/svg" width="637" height="718">
<path d="M0 0 C25.08 0 50.16 0 76 0 C80.21624691 9.03481481 84.35574305 18.00009195 88.1875 27.1875 C89.15436739 29.48852527 90.12183391 31.78929886 91.08984375 34.08984375 C91.57694824 35.2485498 92.06405273 36.40725586 92.56591797 37.60107422 C94.77096904 42.827278 97.01001488 48.03869581 99.25 53.25 C105.38131567 67.53009308 111.47226166 81.8273496 117.5625 96.125 C118.28681213 97.82493103 118.28681213 97.82493103 119.02575684 99.5592041 C124.29040886 111.91578615 129.54399869 124.27690771 134.7734375 136.6484375 C138.56341511 145.61404106 142.36915813 154.57245174 146.21047974 163.51617432 C147.12006583 165.63403504 148.02873754 167.75228648 148.93725586 169.87060547 C150.95750147 174.58069087 152.97873923 179.29035018 155 184 C158.0217895 191.0412567 161.04280071 198.08284662 164.0625 205.125 C164.63307632 206.45558441 164.63307632 206.45558441 165.21517944 207.81304932 C170.29290844 219.65672238 175.34871437 231.50940603 180.375 243.375 C188.86984667 263.42763497 197.44918478 283.44291956 206.11886597 303.42062378 C215.0519006 324.00921537 223.90446417 344.63296913 232.625 365.3125 C236.53626252 374.58302126 240.49989707 383.83004566 244.5 393.0625 C245.22823975 394.74436401 245.22823975 394.74436401 245.97119141 396.46020508 C248.44605012 402.16157914 250.93452135 407.85649212 253.44677734 413.54150391 C260.30094414 429.05755471 266.99715446 444.63607016 273.625 460.25 C275.09338199 463.70541713 276.56221537 467.16064206 278.03117371 470.61581421 C278.98770306 472.86574089 279.94401535 475.11575986 280.90010071 477.36587524 C283.88483405 484.38773091 286.88441042 491.40305671 289.89453125 498.4140625 C292.99266977 505.63378754 296.07248503 512.85964487 299.0625 520.125 C299.64547852 521.51912109 299.64547852 521.51912109 300.24023438 522.94140625 C300.7884082 524.27365234 300.7884082 524.27365234 301.34765625 525.6328125 C301.66742432 526.40512207 301.98719238 527.17743164 302.31665039 527.97314453 C303 530 303 530 303 533 C293.19504136 533.49135416 283.39310161 533.86198359 273.57824421 534.08805561 C269.01748477 534.19670421 264.46526355 534.34330512 259.90942383 534.58422852 C226.83362136 536.28786404 226.83362136 536.28786404 216.56426907 527.13023281 C212.59377667 523.27502224 209.22913827 518.96609289 205.96484375 514.51170349 C203.06399356 510.80348214 199.62186073 507.97049909 196 505 C194.75433424 503.85442636 193.51624046 502.70051302 192.2890625 501.53515625 C191.68924561 500.96692139 191.08942871 500.39868652 190.47143555 499.81323242 C189.86211182 499.23549072 189.25278809 498.65774902 188.625 498.0625 C183.68601877 493.41249846 178.67401939 489.00217513 173.30859375 484.84375 C170.85656785 482.88544844 168.55851105 480.81267711 166.25 478.6875 C161.85503883 474.68274566 157.27898391 471.00130987 152.58374023 467.36132812 C148.76706447 464.39964884 145.00797075 461.38047419 141.28027344 458.30761719 C132.53991765 451.11146322 123.52011567 444.35686824 114.35400391 437.71435547 C112.10364796 436.07548392 109.8684737 434.41798288 107.63671875 432.75390625 C89.51235637 419.32176272 70.07186585 407.87352797 50.60205078 396.52001953 C48.05168166 395.03019047 45.50779409 393.52979236 42.96484375 392.02734375 C33.89948723 386.69259409 24.76367377 381.67183012 15.28564453 377.11035156 C12.76139922 375.88408926 10.25426079 374.62599492 7.74609375 373.3671875 C-4.99687427 367.03869596 -17.9463595 361.40844166 -31.125 356.0625 C-31.90306 355.74562225 -32.68112 355.42874451 -33.48275757 355.1022644 C-49.33449908 347.63103706 -49.33449908 347.63103706 -66 344 C-74.5278677 363.92544573 -82.99871322 383.86993944 -91.1875 403.9375 C-97.00547572 418.19395202 -102.94586239 432.39231832 -108.98294067 446.55725098 C-109.26056244 447.20867065 -109.5381842 447.86009033 -109.82421875 448.53125 C-110.0970871 449.17139038 -110.36995544 449.81153076 -110.65109253 450.47106934 C-113.19555032 456.44651068 -115.69733174 462.43927358 -118.1875 468.4375 C-121.59255335 476.63894122 -125.0334629 484.8243529 -128.5 493 C-131.86046214 500.92643999 -135.19917036 508.86104856 -138.5 516.8125 C-143.34529077 528.47972739 -148.26768365 540.11405804 -153.1875 551.75 C-159.36162274 566.35357496 -165.50640835 580.96854962 -171.59020996 595.60998535 C-175.1068768 604.07314117 -178.63836278 612.52962733 -182.203125 620.97265625 C-182.55518005 621.8065387 -182.90723511 622.64042114 -183.2699585 623.49957275 C-184.6689183 626.81259423 -186.06805153 630.12554231 -187.46765137 633.43829346 C-191.71443637 643.49526851 -195.91644336 653.5643599 -199.88256836 663.73632812 C-201.90510899 668.90510899 -201.90510899 668.90510899 -203 670 C-205.52541002 670.09504251 -208.02337126 670.12557158 -210.54907227 670.11352539 C-211.73435013 670.11374443 -211.73435013 670.11374443 -212.943573 670.1139679 C-215.56787822 670.11326857 -218.19211336 670.10547527 -220.81640625 670.09765625 C-222.63101665 670.09579214 -224.44562756 670.0943682 -226.26023865 670.09336853 C-231.0459023 670.08954279 -235.8315358 670.07971204 -240.6171875 670.06866455 C-245.49674064 670.05845163 -250.37629864 670.05387117 -255.25585938 670.04882812 C-264.83725286 670.03808982 -274.41862393 670.02101273 -284 670 C-273.44066844 643.43126533 -273.44066844 643.43126533 -268.4375 631.9375 C-267.41728118 629.57451549 -266.3977953 627.21121444 -265.37890625 624.84765625 C-264.97895447 623.92104187 -264.97895447 623.92104187 -264.57092285 622.97570801 C-261.33257444 615.46665339 -258.14329739 607.93676386 -254.94976807 600.40856934 C-250.16736355 589.13492453 -245.37829348 577.86434968 -240.54296875 566.61328125 C-240.17408035 565.75488647 -239.80519196 564.8964917 -239.42512512 564.01208496 C-238.67822594 562.27418886 -237.93132347 560.53629416 -237.18441772 558.79840088 C-229.84477085 541.71774509 -222.60598828 524.59724834 -215.45141602 507.43823242 C-205.93598679 484.61883642 -196.25387469 461.87011248 -186.5625 439.125 C-186.05910095 437.94323181 -185.5557019 436.76146362 -185.03704834 435.54388428 C-179.57944428 422.73196697 -174.11892918 409.92138814 -168.625 397.125 C-158.32229926 373.12351615 -148.12399699 349.07736704 -138 325 C-132.60812965 312.17690303 -127.19325557 299.36387351 -121.75 286.5625 C-121.4031012 285.74656372 -121.05620239 284.93062744 -120.6987915 284.08996582 C-116.89820742 275.15182723 -113.09263957 266.21582141 -109.28242493 257.28178406 C-107.1457588 252.27155484 -105.01008193 247.2609045 -102.875 242.25 C-102.45115021 241.25529694 -102.02730042 240.26059387 -101.59060669 239.23574829 C-95.75351367 225.53148117 -89.98044451 211.80245062 -84.27227783 198.04403687 C-79.53806254 186.63726615 -74.71239185 175.27270406 -69.83166504 163.92791748 C-64.31346802 151.09936636 -58.86324571 138.24291239 -53.4375 125.375 C-53.03283508 124.4152829 -52.62817017 123.4555658 -52.21124268 122.46676636 C-51.80847107 121.51150055 -51.40569946 120.55623474 -50.99072266 119.57202148 C-50.18783376 117.66780251 -49.38493671 115.76358698 -48.58203125 113.859375 C-48.19007568 112.92972427 -47.79812012 112.00007355 -47.39428711 111.04225159 C-43.81851237 102.56388029 -40.22368885 94.0936641 -36.625 85.625 C-32.22188443 75.26167124 -27.84812742 64.88651606 -23.5 54.5 C-19.11974482 44.0398927 -14.72709126 33.5851056 -10.30737305 23.14160156 C-9.69259216 21.68827821 -9.07848162 20.23467108 -8.46508789 18.78076172 C-7.61146411 16.75796772 -6.75528935 14.73627208 -5.8984375 12.71484375 C-5.41036621 11.56105225 -4.92229492 10.40726074 -4.41943359 9.21850586 C-3.04434756 6.10055623 -1.5239732 3.04794639 0 0 Z M36 101 C34.145012 105.41632205 32.29105992 109.83307843 30.4375 114.25 C30.14889099 114.93759399 29.86028198 115.62518799 29.56292725 116.33361816 C26.13655218 124.49808798 22.71899917 132.66608731 19.32421875 140.84375 C12.77801693 156.60854951 6.16841211 172.34189635 -0.57574463 188.02313232 C-5.37076084 199.17343555 -10.10611315 210.34619199 -14.78320312 221.54663086 C-18.14042096 229.58343978 -21.52614587 237.60768848 -24.9296875 245.625 C-25.79660851 247.66940856 -26.6634703 249.71384224 -27.53027344 251.75830078 C-28.81740704 254.79411954 -30.10560577 257.82945937 -31.39758301 260.86322021 C-32.60408858 263.69657265 -33.80631794 266.5317072 -35.0078125 269.3671875 C-35.54606155 270.62631958 -35.54606155 270.62631958 -36.09518433 271.91088867 C-38.32994916 277.19836366 -40.26794583 282.52720063 -42 288 C-41.30994873 288.28480225 -40.61989746 288.56960449 -39.90893555 288.86303711 C-3.31586491 304.03091469 33.08770629 320.28521132 67.02587891 340.81591797 C69.02087884 342.01252317 71.02879743 343.18364415 73.04296875 344.34765625 C90.17965522 354.26216336 106.85528998 364.88213835 122.89941406 376.48486328 C125.10001063 378.07213691 127.31085205 379.64433267 129.5234375 381.21484375 C138.72729787 387.77145952 147.65144546 394.58867548 156.41796875 401.71777344 C161.7842855 406.06714004 167.18288431 410.27107968 173 414 C171.09897127 408.00070089 168.91847031 402.22317329 166.375 396.46875 C165.86007492 395.29103279 165.86007492 395.29103279 165.33474731 394.08952332 C164.22685006 391.55804872 163.11346311 389.02903071 162 386.5 C161.22734858 384.73688978 160.45505318 382.97362351 159.68310547 381.21020508 C155.94906892 372.68601554 152.19458094 364.1708752 148.43603516 355.6574707 C148.00339355 354.67738037 147.57075195 353.69729004 147.125 352.6875 C146.69364746 351.71063232 146.26229492 350.73376465 145.81787109 349.72729492 C142.21494089 341.54310564 138.72976942 333.31132737 135.25976562 325.07006836 C130.42334906 313.59722195 125.46559902 302.17766065 120.50239563 290.75930786 C118.54396729 286.25368352 116.58916769 281.74649975 114.63671875 277.23828125 C114.35727417 276.59307526 114.07782959 275.94786926 113.78991699 275.28311157 C112.96407722 273.37625582 112.13828072 271.46938133 111.3125 269.5625 C105.88775852 257.0361152 100.44441393 244.51784396 95 232 C94.17797688 230.10994537 93.35595537 228.21989005 92.53393555 226.32983398 C92.13260406 225.40706161 91.73127258 224.48428925 91.31777954 223.53355408 C80.70735814 199.13706357 70.1038748 174.73767017 59.54309082 150.31964111 C52.4209185 133.85358219 45.24928982 117.41057707 38 101 C37.34 101 36.68 101 36 101 Z " fill="#1B50A5" transform="translate(309,22)"/>
<path d="M0 0 C0.70706085 0.00359528 1.4141217 0.00719055 2.14260864 0.01089478 C3.25473473 0.01067574 3.25473473 0.01067574 4.389328 0.01045227 C6.85130696 0.01115152 9.31321119 0.01894442 11.775177 0.02676392 C13.47768614 0.02862806 15.18019582 0.03005198 16.88270569 0.03105164 C21.37245148 0.03487714 25.86216513 0.0447077 30.35189819 0.05575562 C34.92983566 0.06596903 39.50777831 0.07054911 44.08572388 0.07559204 C53.07467032 0.08632994 62.06359287 0.10340675 71.05252075 0.12442017 C72.16983976 2.50266226 73.28547487 4.88167057 74.400177 7.26113892 C74.87034241 8.26122986 74.87034241 8.26122986 75.3500061 9.28152466 C82.05252075 23.60272502 82.05252075 23.60272502 82.05252075 27.12442017 C80.73252075 27.12442017 79.41252075 27.12442017 78.05252075 27.12442017 C77.40288052 25.22988796 76.7579696 23.33373368 76.11502075 21.43692017 C75.75537231 20.38117798 75.39572388 19.32543579 75.025177 18.23770142 C74.05252075 15.12442017 74.05252075 15.12442017 73.5486145 12.29238892 C73.38490356 11.57695923 73.22119263 10.86152954 73.05252075 10.12442017 C72.06252075 9.62942017 72.06252075 9.62942017 71.05252075 9.12442017 C71.05252075 9.78442017 71.05252075 10.44442017 71.05252075 11.12442017 C69.42625671 12.5067446 67.76002055 13.84379532 66.05252075 15.12442017 C64.73252075 13.47442017 63.41252075 11.82442017 62.05252075 10.12442017 C62.71252075 8.80442017 63.37252075 7.48442017 64.05252075 6.12442017 C63.72252075 6.45442017 63.39252075 6.78442017 63.05252075 7.12442017 C62.39252075 7.12442017 61.73252075 7.12442017 61.05252075 7.12442017 C60.72252075 7.78442017 60.39252075 8.44442017 60.05252075 9.12442017 C60.62836508 6.7387794 61.2747967 4.45759232 62.05252075 2.12442017 C61.33064575 2.47504517 60.60877075 2.82567017 59.86502075 3.18692017 C56.66228906 4.2544974 55.27896596 3.85037034 52.05252075 3.12442017 C49.3274911 3.50164031 49.3274911 3.50164031 47.05252075 4.12442017 C47.05252075 3.46442017 47.05252075 2.80442017 47.05252075 2.12442017 C45.40252075 2.78442017 43.75252075 3.44442017 42.05252075 4.12442017 C42.05252075 3.46442017 42.05252075 2.80442017 42.05252075 2.12442017 C40.07252075 2.78442017 38.09252075 3.44442017 36.05252075 4.12442017 C36.05252075 3.46442017 36.05252075 2.80442017 36.05252075 2.12442017 C35.06252075 2.28942017 34.07252075 2.45442017 33.05252075 2.62442017 C30.25128265 3.03519235 27.57017521 3.16581182 24.74002075 3.12442017 C21.2295428 2.84957014 21.2295428 2.84957014 19.05252075 4.12442017 C19.05252075 3.46442017 19.05252075 2.80442017 19.05252075 2.12442017 C18.39252075 2.12442017 17.73252075 2.12442017 17.05252075 2.12442017 C16.72252075 2.78442017 16.39252075 3.44442017 16.05252075 4.12442017 C14.05252075 4.12442017 12.05252075 4.12442017 10.05252075 4.12442017 C10.05252075 3.46442017 10.05252075 2.80442017 10.05252075 2.12442017 C9.39252075 2.12442017 8.73252075 2.12442017 8.05252075 2.12442017 C8.05252075 3.11442017 8.05252075 4.10442017 8.05252075 5.12442017 C9.04252075 5.45442017 10.03252075 5.78442017 11.05252075 6.12442017 C10.39252075 7.77442017 9.73252075 9.42442017 9.05252075 11.12442017 C6.74252075 10.79442017 4.43252075 10.46442017 2.05252075 10.12442017 C3.04252075 9.22723267 3.04252075 9.22723267 4.05252075 8.31192017 C6.38990535 6.24940183 6.38990535 6.24940183 6.05252075 3.12442017 C5.06252075 3.61942017 5.06252075 3.61942017 4.05252075 4.12442017 C4.05252075 3.46442017 4.05252075 2.80442017 4.05252075 2.12442017 C2.07252075 2.12442017 0.09252075 2.12442017 -1.94747925 2.12442017 C-1.94747925 2.78442017 -1.94747925 3.44442017 -1.94747925 4.12442017 C-2.60747925 4.12442017 -3.26747925 4.12442017 -3.94747925 4.12442017 C-5.39270584 7.20757022 -6.08740401 9.8892998 -6.38497925 13.24942017 C-6.95996595 17.21043964 -7.15437709 17.69563568 -9.94747925 20.12442017 C-9.94747925 21.44442017 -9.94747925 22.76442017 -9.94747925 24.12442017 C-10.60747925 24.78442017 -11.26747925 25.44442017 -11.94747925 26.12442017 C-12.70402066 27.5795199 -13.40777428 29.06264119 -14.07247925 30.56192017 C-14.60228394 31.73561157 -14.60228394 31.73561157 -15.14279175 32.93301392 C-16.1198278 35.20469763 -16.1198278 35.20469763 -15.94747925 38.12442017 C-16.60747925 38.78442017 -17.26747925 39.44442017 -17.94747925 40.12442017 C-18.60747925 41.11442017 -19.26747925 42.10442017 -19.94747925 43.12442017 C-20.60747925 43.12442017 -21.26747925 43.12442017 -21.94747925 43.12442017 C-21.3302805 37.87874856 -19.64735381 33.51266956 -17.60372925 28.69863892 C-17.10999817 27.51634453 -17.10999817 27.51634453 -16.60629272 26.31016541 C-15.91329604 24.65413373 -15.21723459 22.99938159 -14.51828003 21.34585571 C-13.44476606 18.8054997 -12.38090927 16.26126493 -11.318573 13.71621704 C-10.64334891 12.10595725 -9.96758668 10.49592299 -9.29122925 8.88613892 C-8.9714209 8.12266647 -8.65161255 7.35919403 -8.32211304 6.57258606 C-5.54360997 0.01189139 -5.54360997 0.01189139 0 0 Z " fill="#367DDF" transform="translate(313.9474792480469,21.875579833984375)"/>
<path d="M0 0 C2.14431745 2.14431745 2.77942357 3.60041521 3.875 6.39453125 C4.22046875 7.26787109 4.5659375 8.14121094 4.921875 9.04101562 C5.45554687 10.41290039 5.45554687 10.41290039 6 11.8125 C6.53367187 13.16698242 6.53367187 13.16698242 7.078125 14.54882812 C7.74455487 16.24101293 8.40885366 17.93403971 9.0703125 19.62817383 C9.72572117 21.30025767 10.41094034 22.96080653 11.1171875 24.61206055 C12 27 12 27 12 30 C4.08 30 -3.84 30 -12 30 C-11.01 29.67 -10.02 29.34 -9 29 C-9.33 27.35 -9.66 25.7 -10 24 C-11.32 24 -12.64 24 -14 24 C-14.83250492 21.65243955 -15.20578628 20.48528704 -14.21484375 18.1484375 C-10.62334002 13.1620684 -10.62334002 13.1620684 -6.875 12.1875 C-3.8223598 11.31475354 -3.8223598 11.31475354 -2.98828125 8.703125 C-2.46212639 6.88596577 -1.97876757 5.05576362 -1.54296875 3.21484375 C-1 1 -1 1 0 0 Z " fill="#164490" transform="translate(600,525)"/>
<path d="M0 0 C0.495 0.99 0.495 0.99 1 2 C0.2578125 4.171875 0.2578125 4.171875 -0.875 6.75 C-2.16529858 9.79739461 -3.03358056 12.20894571 -3.5625 15.5 C-3.706875 16.325 -3.85125 17.15 -4 18 C-4.99 18.66 -5.98 19.32 -7 20 C-7.4439109 21.57076164 -7.87838428 23.14478478 -8.265625 24.73046875 C-9.57679321 28.78253647 -11.68506392 32.46861808 -13.66015625 36.23046875 C-14.78796713 38.56171631 -15.4786733 40.49010753 -16 43 C-16.33 43.99 -16.66 44.98 -17 46 C-16.61067144 48.14255793 -16.61067144 48.14255793 -16 50 C-16.61617188 50.07734375 -17.23234375 50.1546875 -17.8671875 50.234375 C-20.14904959 50.80672679 -20.14904959 50.80672679 -21.1953125 52.890625 C-21.65550781 54.05851562 -21.65550781 54.05851562 -22.125 55.25 C-22.45242188 56.06210938 -22.77984375 56.87421875 -23.1171875 57.7109375 C-23.40851563 58.46632812 -23.69984375 59.22171875 -24 60 C-24.4125 60.94875 -24.825 61.8975 -25.25 62.875 C-26.16641006 65.09591691 -26.16641006 65.09591691 -26 68 C-26.99 68.99 -26.99 68.99 -28 70 C-28.70710678 71.64991582 -29.36562656 73.3207762 -30 75 C-31.84907752 79.42170711 -33.81499293 83.73403381 -36 88 C-36.33 88 -36.66 88 -37 88 C-37.36054494 82.93388132 -36.14848701 79.21573623 -34.10546875 74.671875 C-33.80228729 73.9738678 -33.49910583 73.2758606 -33.18673706 72.55670166 C-32.19685109 70.28334636 -31.19216513 68.01685735 -30.1875 65.75 C-29.49742336 64.17109387 -28.80855 62.59166132 -28.12084961 61.01171875 C-26.7373066 57.8347888 -25.34928315 54.65987886 -23.95800781 51.48632812 C-21.27194515 45.34703591 -18.66358078 39.17574782 -16.0625 33 C-15.62317139 31.96327148 -15.18384277 30.92654297 -14.73120117 29.85839844 C-12.67430546 25.0009631 -10.64080257 20.13587938 -8.65234375 15.25 C-8.28681396 14.35925781 -7.92128418 13.46851562 -7.54467773 12.55078125 C-6.87088018 10.90557516 -6.20445757 9.25731996 -5.54711914 7.60546875 C-3.33565234 2.22376822 -3.33565234 2.22376822 0 0 Z " fill="#2B69C3" transform="translate(282,90)"/>
<path d="M0 0 C0.66 0 1.32 0 2 0 C9.7794431 17.58436047 17.41892213 35.22629535 24.91537476 52.93325806 C25.75928958 54.92624131 26.6043508 56.91873954 27.45059204 58.91073608 C28.65171258 61.73973896 29.84803869 64.57072142 31.04296875 67.40234375 C31.39869965 68.23876404 31.75443054 69.07518433 32.12094116 69.93695068 C34.34042569 75.21709697 36.26921729 80.54015194 38 86 C37.01 86 36.02 86 35 86 C35 86.99 35 87.98 35 89 C34.01 88.67 33.02 88.34 32 88 C32.11859375 87.443125 32.2371875 86.88625 32.359375 86.3125 C33.29511896 80.77289578 32.81140781 77.45469147 30.10546875 72.53125 C29.06339183 70.83860454 29.06339183 70.83860454 27 70 C26.85691406 68.98808594 26.71382813 67.97617188 26.56640625 66.93359375 C25.94034257 62.58568942 24.63588052 59.07792865 22.9375 55.0625 C22.65583984 54.37865234 22.37417969 53.69480469 22.08398438 52.99023438 C21.3964595 51.32386054 20.69923825 49.66149273 20 48 C19.34 48 18.68 48 18 48 C16.875 43.25 16.875 43.25 18 41 C17.34 40.67 16.68 40.34 16 40 C13.59963878 35.82545875 12.12621716 31.53794177 10.74609375 26.953125 C10.07817996 24.80603248 10.07817996 24.80603248 8 23 C7.6550855 21.66961551 7.32483418 20.33542939 7 19 C5.54898682 15.40401082 4.15330447 12.22995671 2 9 C1.3671875 6.73828125 1.3671875 6.73828125 0.875 4.3125 C0.70742188 3.50425781 0.53984375 2.69601563 0.3671875 1.86328125 C0.24601562 1.24839844 0.12484375 0.63351563 0 0 Z " fill="#2661B8" transform="translate(411,87)"/>
<path d="M0 0 C2.88904375 1.44452187 3.15886861 3.31839302 4.3828125 6.27734375 C5.04990234 7.88319336 5.04990234 7.88319336 5.73046875 9.52148438 C6.19066406 10.64876953 6.65085937 11.77605469 7.125 12.9375 C7.59292969 14.06091797 8.06085938 15.18433594 8.54296875 16.34179688 C12 24.72232598 12 24.72232598 12 27 C10.68 27 9.36 27 8 27 C7.35035977 25.10546779 6.70544885 23.20931351 6.0625 21.3125 C5.70285156 20.25675781 5.34320313 19.20101562 4.97265625 18.11328125 C4 15 4 15 3.49609375 12.16796875 C3.25052734 11.09482422 3.25052734 11.09482422 3 10 C2.34 9.67 1.68 9.34 1 9 C1 9.66 1 10.32 1 11 C-0.62626404 12.38232443 -2.2925002 13.71937515 -4 15 C-5.32 13.35 -6.64 11.7 -8 10 C-7.34 8.68 -6.68 7.36 -6 6 C-6.33 6.33 -6.66 6.66 -7 7 C-7.66 7 -8.32 7 -9 7 C-9.33 7.66 -9.66 8.32 -10 9 C-9.42415568 6.61435923 -8.77772405 4.33317216 -8 2 C-5.36 2 -2.72 2 0 2 C0 1.34 0 0.68 0 0 Z " fill="#286BCB" transform="translate(384,22)"/>
<path d="M0 0 C0.66 0 1.32 0 2 0 C4.02676942 4.62022798 6.03843062 9.24662934 8.03637695 13.87939453 C8.71813312 15.45442483 9.4039821 17.02769012 10.09399414 18.59912109 C11.08520892 20.85843427 12.0615236 23.12368943 13.03515625 25.390625 C13.34655045 26.09181458 13.65794464 26.79300415 13.97877502 27.51544189 C16.07079868 32.44305767 16.07079868 32.44305767 15.68530273 35.47558594 C15.45915283 35.97864258 15.23300293 36.48169922 15 37 C14.20576139 35.43880578 13.41472877 33.87598036 12.625 32.3125 C12.18414062 31.44238281 11.74328125 30.57226562 11.2890625 29.67578125 C10.07335732 27.15227201 9.00739042 24.61262468 8 22 C7.01 22.33 6.02 22.66 5 23 C5.33 21.02 5.66 19.04 6 17 C5.34 18.32 4.68 19.64 4 21 C2.66666667 20.33333333 1.33333333 19.66666667 0 19 C-0.33 19.66 -0.66 20.32 -1 21 C-1.99 21 -2.98 21 -4 21 C-4.33 18.69 -4.66 16.38 -5 14 C-3.68 14 -2.36 14 -1 14 C-0.67 13.01 -0.34 12.02 0 11 C0.99 11.33 1.98 11.66 3 12 C2.67 9.69 2.34 7.38 2 5 C-0.31 5.66 -2.62 6.32 -5 7 C-4.0409375 6.1028125 -4.0409375 6.1028125 -3.0625 5.1875 C-0.79689611 3.09189663 -0.79689611 3.09189663 0 0 Z " fill="#225CB4" transform="translate(477,241)"/>
<path d="M0 0 C0.33 1.32 0.66 2.64 1 4 C1.66 4 2.32 4 3 4 C3 4.66 3 5.32 3 6 C2.34 6 1.68 6 1 6 C0.83564453 6.92232422 0.83564453 6.92232422 0.66796875 7.86328125 C0.43013672 9.07564453 0.43013672 9.07564453 0.1875 10.3125 C0.03667969 11.11300781 -0.11414063 11.91351562 -0.26953125 12.73828125 C-1.09499852 15.29413979 -2.12823025 16.13782907 -4 18 C-4.93031185 20.35607384 -4.93031185 20.35607384 -5.5625 22.9375 C-6.43143873 26.19233828 -7.41806993 29.02521517 -9 32 C-10.3015797 34.96470931 -11 36.73381035 -11 40 C-13 41.6875 -13 41.6875 -15 43 C-16.73176853 38.03527326 -14.89926031 34.49115891 -12.8515625 29.9609375 C-12.51957855 29.19826569 -12.1875946 28.43559387 -11.84555054 27.64981079 C-10.78442598 25.21921426 -9.70525109 22.79714804 -8.625 20.375 C-7.55609978 17.94402099 -6.4908671 15.51145805 -5.4258728 13.07876587 C-4.76239938 11.56709506 -4.0958576 10.05676643 -3.42593384 8.54794312 C-2.17202165 5.72015952 -0.97889648 2.93668943 0 0 Z " fill="#153D85" transform="translate(65,596)"/>
<path d="M0 0 C1.98 0.99 3.96 1.98 6 3 C5.34 3.66 4.68 4.32 4 5 C4 5.99 4 6.98 4 8 C5.65 8 7.3 8 9 8 C7.94124926 11.40312738 6.99097846 14.01353231 5 17 C0.50202887 15.31326082 -3.72886302 13.18326108 -8 11 C-7.34 10.67 -6.68 10.34 -6 10 C-5.31379969 8.67661368 -4.65213539 7.34050052 -4 6 C-2.68457624 3.98817543 -1.3540932 1.98600337 0 0 Z " fill="#19489A" transform="translate(354,400)"/>
<path d="M0 0 C2 3 2 3 1.7578125 5.19140625 C1.54898437 5.97386719 1.34015625 6.75632812 1.125 7.5625 C0.27171596 10.74395296 0.27171596 10.74395296 0 14 C-0.495 14.45375 -0.99 14.9075 -1.5 15.375 C-3.45218674 17.12128967 -3.45218674 17.12128967 -3 21 C-3.66 21.66 -4.32 22.32 -5 23 C-5.75654142 24.45509973 -6.46029504 25.93822102 -7.125 27.4375 C-7.47820312 28.21996094 -7.83140625 29.00242187 -8.1953125 29.80859375 C-9.17234855 32.08027747 -9.17234855 32.08027747 -9 35 C-9.66 35.66 -10.32 36.32 -11 37 C-11.66 37.99 -12.32 38.98 -13 40 C-13.66 40 -14.32 40 -15 40 C-14.38282894 34.90223679 -12.81839991 30.66049002 -10.83984375 25.9765625 C-10.53051407 25.23038666 -10.22118439 24.48421082 -9.90248108 23.71542358 C-8.92006655 21.34943689 -7.92893819 18.98721761 -6.9375 16.625 C-6.26699789 15.01456437 -5.59706986 13.4038896 -4.92773438 11.79296875 C-3.29178722 7.85918041 -1.64801898 3.92874539 0 0 Z " fill="#2D71D0" transform="translate(307,25)"/>
<path d="M0 0 C2.04003906 3.70849609 2.04003906 3.70849609 1.6796875 6.33203125 C-0.05401101 11.67619898 -2.08409856 16.20287183 -5 21 C-6.49656972 24.30820675 -7.38673546 27.42262351 -8 31 C-8.66 31 -9.32 31 -10 31 C-10 31.66 -10 32.32 -10 33 C-7.525 32.505 -7.525 32.505 -5 32 C-5 32.66 -5 33.32 -5 34 C-7.97 34 -10.94 34 -14 34 C-12.41960427 30.01966048 -10.8351462 26.0409498 -9.25 22.0625 C-8.58484375 20.38704102 -8.58484375 20.38704102 -7.90625 18.67773438 C-5.39862594 12.39023581 -2.81573009 6.15617368 0 0 Z " fill="#163C83" transform="translate(39,658)"/>
<path d="M0 0 C0.66 0 1.32 0 2 0 C-0.42393844 7.73509365 -3.49394736 15.11637146 -6.6875 22.5625 C-7.19861328 23.76197266 -7.70972656 24.96144531 -8.23632812 26.19726562 C-9.48775802 29.13286285 -10.74238293 32.06704935 -12 35 C-13.5 33.625 -13.5 33.625 -15 32 C-15 31.34 -15 30.68 -15 30 C-15.66 29.67 -16.32 29.34 -17 29 C-14 27 -14 27 -12 26 C-11.34 26.33 -10.68 26.66 -10 27 C-10 26.01 -10 25.02 -10 24 C-10.99 23.67 -11.98 23.34 -13 23 C-12.34 23 -11.68 23 -11 23 C-9.93301265 21.10187319 -9.93301265 21.10187319 -9.6875 19.25 C-9 17 -9 17 -7.0625 14.125 C-5.05039838 11.07636118 -4.00734412 8.48696042 -3 5 C-2 2 -2 2 0 0 Z " fill="#17428A" transform="translate(216,424)"/>
<path d="M0 0 C0.66 0 1.32 0 2 0 C1.1428297 6.97014799 0.42500737 12.3304593 -4 18 C-5.10636395 20.39068734 -5.10636395 20.39068734 -6 23 C-6.54026783 24.43802632 -7.08201949 25.87549576 -7.625 27.3125 C-8.07875 28.529375 -8.5325 29.74625 -9 31 C-9.66 31 -10.32 31 -11 31 C-11.12375 31.804375 -11.2475 32.60875 -11.375 33.4375 C-11.684375 34.7059375 -11.684375 34.7059375 -12 36 C-12.99 36.495 -12.99 36.495 -14 37 C-13.39945991 32.34934689 -12.1240051 28.45899642 -10.3125 24.140625 C-10.04993408 23.51017273 -9.78736816 22.87972046 -9.5168457 22.23016357 C-8.68383897 20.23422745 -7.84200062 18.24215612 -7 16.25 C-6.43432666 14.89737331 -5.86921696 13.54451075 -5.3046875 12.19140625 C-1.26021635 2.52043269 -1.26021635 2.52043269 0 0 Z " fill="#235AB0" transform="translate(224,222)"/>
<path d="M0 0 C0.598125 0.309375 1.19625 0.61875 1.8125 0.9375 C4.08956772 2.10209704 4.08956772 2.10209704 7 3 C7 4.32 7 5.64 7 7 C11.95 7 16.9 7 22 7 C22.33 7.66 22.66 8.32 23 9 C13.43 9 3.86 9 -6 9 C-5.67 7.68 -5.34 6.36 -5 5 C-4.01 4.67 -3.02 4.34 -2 4 C-0.79117904 1.99983534 -0.79117904 1.99983534 0 0 Z " fill="#16418A" transform="translate(564,546)"/>
<path d="M0 0 C0.33 0.66 0.66 1.32 1 2 C1.99 2.33 2.98 2.66 4 3 C4.8125 5.625 4.8125 5.625 5 9 C3.57631048 11.3586498 1.94551992 13.00702837 0 15 C-2.4375 13.875 -2.4375 13.875 -5 12 C-5.8125 8.8125 -5.8125 8.8125 -6 6 C-5.01 5.67 -4.02 5.34 -3 5 C-3 4.34 -3 3.68 -3 3 C-2.34 3 -1.68 3 -1 3 C-0.67 2.01 -0.34 1.02 0 0 Z " fill="#2264C6" transform="translate(394,141)"/>
<path d="M0 0 C1.32 0 2.64 0 4 0 C3.37315423 2.92528027 2.51695295 5.41225673 1 8 C0.01 8.495 0.01 8.495 -1 9 C-1.53258686 10.8552751 -1.97664884 12.73634683 -2.375 14.625 C-3.57313983 19.77392913 -5.10208474 23.60316305 -8 28 C-8.66 27.01 -9.32 26.02 -10 25 C-7.79448245 16.32496432 -3.65019002 8.15042429 0 0 Z " fill="#163F88" transform="translate(87,545)"/>
<path d="M0 0 C0.66 0.66 1.32 1.32 2 2 C1.67 2.99 1.34 3.98 1 5 C0.34 5 -0.32 5 -1 5 C-1 5.66 -1 6.32 -1 7 C-0.01 7.33 0.98 7.66 2 8 C1.75 9.875 1.75 9.875 1 12 C-0.33333333 12.66666667 -1.66666667 13.33333333 -3 14 C-3.36162029 15.32594105 -3.69728039 16.65938457 -4 18 C-4.99 18.33 -5.98 18.66 -7 19 C-7.66 18.34 -8.32 17.68 -9 17 C-8.62746094 16.39671875 -8.25492187 15.7934375 -7.87109375 15.171875 C-7.39800781 14.37265625 -6.92492187 13.5734375 -6.4375 12.75 C-5.96183594 11.96109375 -5.48617188 11.1721875 -4.99609375 10.359375 C-3.83904884 7.61876665 -4.14077257 6.75407998 -5 4 C-4.67 3.01 -4.34 2.02 -4 1 C-2.0625 0.1875 -2.0625 0.1875 0 0 Z " fill="#2466C8" transform="translate(381,122)"/>
<path d="M0 0 C1.98 0.66 3.96 1.32 6 2 C5.95875 2.9075 5.9175 3.815 5.875 4.75 C5.77279857 7.91083821 5.77279857 7.91083821 7.0625 10.125 C8 12 8 12 7.625 14.25 C7.41875 14.8275 7.2125 15.405 7 16 C6.01 16 5.02 16 4 16 C3.1290621 14.27921959 2.27885442 12.54793677 1.4375 10.8125 C0.72400391 9.36810547 0.72400391 9.36810547 -0.00390625 7.89453125 C-1.0953885 4.72281223 -0.96567452 3.16301775 0 0 Z " fill="#1D58B4" transform="translate(424,295)"/>
<path d="M0 0 C0.66 0 1.32 0 2 0 C3.35194887 2.86659903 4.67807247 5.74444847 6 8.625 C6.3815625 9.43324219 6.763125 10.24148437 7.15625 11.07421875 C9.19679724 15.556135 10.52176477 18.96170899 10 24 C8.68 23.67 7.36 23.34 6 23 C5.80664062 22.07316406 5.61328125 21.14632812 5.4140625 20.19140625 C5.15367187 18.99386719 4.89328125 17.79632813 4.625 16.5625 C4.24214844 14.77005859 4.24214844 14.77005859 3.8515625 12.94140625 C3.57054687 11.97074219 3.28953125 11.00007812 3 10 C2.34 9.67 1.68 9.34 1 9 C1.020625 8.2575 1.04125 7.515 1.0625 6.75 C1.00671312 4.29537721 0.6930096 2.33890739 0 0 Z " fill="#2460BA" transform="translate(449,176)"/>
<path d="M0 0 C3 1 3 1 4.25854492 3.23730469 C4.66177979 4.20571289 5.06501465 5.17412109 5.48046875 6.171875 C5.92197266 7.22890625 6.36347656 8.2859375 6.81835938 9.375 C7.27017578 10.48875 7.72199219 11.6025 8.1875 12.75 C8.65091797 13.84828125 9.11433594 14.9465625 9.59179688 16.078125 C13.29893446 25.07571373 13.29893446 25.07571373 13 30 C12.34 30 11.68 30 11 30 C10.49487756 28.39743892 9.99608373 26.79288208 9.5 25.1875 C9.2215625 24.29417969 8.943125 23.40085937 8.65625 22.48046875 C8 20 8 20 8 17 C7.01 16.67 6.02 16.34 5 16 C5.33 14.68 5.66 13.36 6 12 C5.01 12 4.02 12 3 12 C2 8 1 4 0 0 Z " fill="#245AAC" transform="translate(495,284)"/>
<path d="M0 0 C1.32 0 2.64 0 4 0 C5.51186959 3.41153553 7.00739131 6.8299987 8.5 10.25 C8.92925781 11.21808594 9.35851562 12.18617187 9.80078125 13.18359375 C10.20683594 14.11816406 10.61289062 15.05273438 11.03125 16.015625 C11.40830078 16.87446289 11.78535156 17.73330078 12.17382812 18.61816406 C13 21 13 21 13 25 C9.82536506 23.41268253 9.24480948 20.16033823 8 17 C7.31302433 15.27062496 6.62550554 13.54146558 5.9375 11.8125 C5.61652344 10.99394531 5.29554688 10.17539063 4.96484375 9.33203125 C4.0676041 7.16339939 3.07780798 5.0837621 2 3 C2 3.99 2 4.98 2 6 C1.34 6 0.68 6 0 6 C-0.38218767 4.34385343 -0.71395102 2.67542976 -1 1 C-0.67 0.67 -0.34 0.34 0 0 Z " fill="#2866BF" transform="translate(398,61)"/>
<path d="M0 0 C4.16995424 0.62363907 7.42514447 2.0383738 11.17578125 3.94140625 C12.33271484 4.52470703 13.48964844 5.10800781 14.68164062 5.70898438 C15.89199387 6.32669206 17.1022795 6.94453227 18.3125 7.5625 C19.54203759 8.18479856 20.77185267 8.80654918 22.00195312 9.42773438 C25.00407552 10.94645512 28.00325153 12.4707102 31 14 C31 14.66 31 15.32 31 16 C26.25639663 14.95507103 22.11537178 12.82842817 17.75 10.75 C16.92886719 10.36714844 16.10773438 9.98429687 15.26171875 9.58984375 C9.97636209 7.08537205 4.74221073 4.45217145 0 1 C0 0.67 0 0.34 0 0 Z " fill="#2663B9" transform="translate(317,332)"/>
<path d="M0 0 C0.66 0.33 1.32 0.66 2 1 C2 1.66 2 2.32 2 3 C3.65 2.01 5.3 1.02 7 0 C6.42415568 2.38564077 5.77772405 4.66682784 5 7 C4.236875 6.79375 3.47375 6.5875 2.6875 6.375 C-0.21885944 5.66608797 -0.21885944 5.66608797 -3 8 C-3.33 8.99 -3.66 9.98 -4 11 C-3.01 11.33 -2.02 11.66 -1 12 C-1.33 12.99 -1.66 13.98 -2 15 C-5 14 -5 14 -6.375 11.8125 C-7 9 -7 9 -5.875 5.875 C-4.10503009 3.16104614 -2.72323504 1.69028382 0 0 Z " fill="#123880" transform="translate(122,562)"/>
<path d="M0 0 C0.33 0.66 0.66 1.32 1 2 C1.66 2.33 2.32 2.66 3 3 C2.01 3.495 2.01 3.495 1 4 C1.33 4.66 1.66 5.32 2 6 C1.01 6.495 1.01 6.495 0 7 C-0.80584656 9.26256917 -1.40518709 11.55079252 -2.0234375 13.87109375 C-3.22894964 16.49911021 -4.34762416 17.00126589 -7 18 C-6.59657725 11.81418444 -4.51160866 4.51160866 0 0 Z " fill="#2E71CF" transform="translate(289,71)"/>
<path d="M0 0 C2.31 0 4.62 0 7 0 C8.125 4.75 8.125 4.75 7 7 C7.39938767 9.09821215 7.39938767 9.09821215 8 11 C5 10 5 10 3.3125 6.9375 C2.879375 5.968125 2.44625 4.99875 2 4 C0.35 6.64 -1.3 9.28 -3 12 C-4 10 -4 10 -3.22265625 7.6171875 C-2.83980469 6.71226562 -2.45695312 5.80734375 -2.0625 4.875 C-1.68222656 3.96492188 -1.30195312 3.05484375 -0.91015625 2.1171875 C-0.60980469 1.41851562 -0.30945313 0.71984375 0 0 Z " fill="#163E85" transform="translate(112,490)"/>
<path d="M0 0 C0.66 0 1.32 0 2 0 C2.33 0.66 2.66 1.32 3 2 C3.66 2 4.32 2 5 2 C4.27899757 6.38293584 2.17865359 7.95851171 -1.14453125 10.671875 C-3.316155 12.22630042 -5.44554512 13.22592276 -8 14 C-7 11 -7 11 -4 9 C-4 8.01 -4 7.02 -4 6 C-3.34 6 -2.68 6 -2 6 C-2 5.01 -2 4.02 -2 3 C-1.34 3 -0.68 3 0 3 C0 2.01 0 1.02 0 0 Z M-3 7 C-2 9 -2 9 -2 9 Z " fill="#256ACF" transform="translate(358,40)"/>
<path d="M0 0 C1.32 0 2.64 0 4 0 C7.07692308 6.4 7.07692308 6.4 6.6875 9.4375 C6.460625 9.953125 6.23375 10.46875 6 11 C4.35 11.33 2.7 11.66 1 12 C0.83211627 10.37512529 0.66573213 8.75009558 0.5 7.125 C0.4071875 6.22007812 0.314375 5.31515625 0.21875 4.3828125 C0 2 0 2 0 0 Z " fill="#2163C4" transform="translate(382,171)"/>
<path d="M0 0 C2.475 0.99 2.475 0.99 5 2 C5 2.66 5 3.32 5 4 C5.99 4.33 6.98 4.66 8 5 C7.67 5.99 7.34 6.98 7 8 C6.443125 7.731875 5.88625 7.46375 5.3125 7.1875 C4.1678125 7.0946875 4.1678125 7.0946875 3 7 C0.33333333 9.33333333 0.33333333 9.33333333 -2 12 C-2.99 12.495 -2.99 12.495 -4 13 C-3.7452486 11.68428397 -3.47065859 10.37239624 -3.1875 9.0625 C-3.03667969 8.33160156 -2.88585937 7.60070312 -2.73046875 6.84765625 C-2.48941406 6.23792969 -2.24835938 5.62820313 -2 5 C-1.01 4.67 -0.02 4.34 1 4 C0.67 2.68 0.34 1.36 0 0 Z " fill="#16418C" transform="translate(185,464)"/>
<path d="M0 0 C1.32 0.33 2.64 0.66 4 1 C3.34 2.32 2.68 3.64 2 5 C1.34 5 0.68 5 0 5 C-0.103125 6.03125 -0.20625 7.0625 -0.3125 8.125 C-0.99127797 11.95083945 -2.11158795 14.63370025 -4 18 C-4.66 18 -5.32 18 -6 18 C-5.41347648 13.51006131 -4.2356462 9.77456816 -2.4375 5.625 C-1.98246094 4.56539062 -1.52742187 3.50578125 -1.05859375 2.4140625 C-0.70925781 1.61742187 -0.35992187 0.82078125 0 0 Z " fill="#2A64BD" transform="translate(242,179)"/>
<path d="M0 0 C0.66 0.66 1.32 1.32 2 2 C1.1875 4.9375 1.1875 4.9375 0 8 C-3.34632847 9.11544282 -4.63913839 8.67217232 -8 8 C-8.99 8.33 -9.98 8.66 -11 9 C-10.6875 6.625 -10.6875 6.625 -10 4 C-9.01 3.34 -8.02 2.68 -7 2 C-6.01 3.485 -6.01 3.485 -5 5 C-4.319375 4.2575 -4.319375 4.2575 -3.625 3.5 C-2 2 -2 2 0 2 C0 1.34 0 0.68 0 0 Z " fill="#2262C1" transform="translate(427,219)"/>
<path d="M0 0 C0.66 0 1.32 0 2 0 C0.3943662 13.05633803 0.3943662 13.05633803 -4 18 C-4.66 18 -5.32 18 -6 18 C-5.55397709 11.30965634 -2.92654458 5.97187878 0 0 Z " fill="#2760BB" transform="translate(224,222)"/>
<path d="M0 0 C0.66 0.33 1.32 0.66 2 1 C1.814375 1.598125 1.62875 2.19625 1.4375 2.8125 C0.77906313 5.16408762 0.77906313 5.16408762 2 8 C1.4225 8.103125 0.845 8.20625 0.25 8.3125 C-2.32049158 9.09792798 -3.93657284 10.30504197 -6 12 C-5.34 9.69 -4.68 7.38 -4 5 C-5.32 5.33 -6.64 5.66 -8 6 C-8 5.01 -8 4.02 -8 3 C-6.865625 2.690625 -5.73125 2.38125 -4.5625 2.0625 C-1.21224901 1.37075469 -1.21224901 1.37075469 0 0 Z " fill="#2261C2" transform="translate(394,194)"/>
<path d="M0 0 C0.99 0.33 1.98 0.66 3 1 C1.68 3.64 0.36 6.28 -1 9 C-2 6 -2 6 -2 2 C-1.34 2 -0.68 2 0 2 C0 1.34 0 0.68 0 0 Z M-3 8 C-2.67 9.32 -2.34 10.64 -2 12 C-3.32 12 -4.64 12 -6 12 C-7.34164079 12.2981424 -8.67851173 12.62243192 -10 13 C-10.66 11.68 -11.32 10.36 -12 9 C-9.04335481 7.5216774 -6.25770263 7.93967217 -3 8 Z " fill="#2365C7" transform="translate(363,105)"/>
<path d="M0 0 C0.66 0 1.32 0 2 0 C1.60828166 5.09233843 -0.26837947 8.50303401 -2.7890625 12.80859375 C-4.2445957 15.44263931 -5.18432364 18.10805655 -6 21 C-6.33 21 -6.66 21 -7 21 C-7.36558896 15.93620403 -6.14310951 12.21532527 -4.0625 7.6875 C-3.78470703 7.05521484 -3.50691406 6.42292969 -3.22070312 5.77148438 C-1.17712355 1.17712355 -1.17712355 1.17712355 0 0 Z " fill="#255AAE" transform="translate(197,287)"/>
<path d="M0 0 C0.66 0 1.32 0 2 0 C3.03516348 2.24435445 4.05314977 4.49406867 5.0625 6.75 C5.50432617 7.70132813 5.50432617 7.70132813 5.95507812 8.671875 C8.07081639 13.45095438 8.07081639 13.45095438 7.68359375 16.453125 C7.45800781 16.96359375 7.23242188 17.4740625 7 18 C6.76925781 17.44570312 6.53851563 16.89140625 6.30078125 16.3203125 C4.25432116 11.56768485 4.25432116 11.56768485 0.25 8.5 C-0.4925 8.335 -1.235 8.17 -2 8 C-1.34 5.36 -0.68 2.72 0 0 Z M1 5 C2 7 2 7 2 7 Z " fill="#2460B8" transform="translate(463,208)"/>
<path d="M0 0 C2 3 2 3 2 7 C1.03303151 8.03197478 0.02960964 9.03051355 -1 10 C-1.98628417 12.03077684 -1.98628417 12.03077684 -2.6875 14.1875 C-2.93886719 14.90292969 -3.19023438 15.61835937 -3.44921875 16.35546875 C-3.63097656 16.89816406 -3.81273437 17.44085937 -4 18 C-4.99 18 -5.98 18 -7 18 C-5.06375702 11.79522136 -2.74390859 5.89174281 0 0 Z " fill="#15418C" transform="translate(47,639)"/>
<path d="M0 0 C0.33 0 0.66 0 1 0 C1.56131481 6.45512034 -0.36536213 11.15439723 -3 17 C-3.99 17 -4.98 17 -6 17 C-5.34496718 12.94180817 -4.05440879 9.46028718 -2.4375 5.6875 C-1.75494141 4.08455078 -1.75494141 4.08455078 -1.05859375 2.44921875 C-0.53458984 1.23685547 -0.53458984 1.23685547 0 0 Z " fill="#16428F" transform="translate(95,526)"/>
<path d="M0 0 C1.17189558 3.51568674 0.83725505 3.9991852 -0.65234375 7.23046875 C-1.01650391 8.03291016 -1.38066406 8.83535156 -1.75585938 9.66210938 C-2.14580078 10.49548828 -2.53574219 11.32886719 -2.9375 12.1875 C-3.32357422 13.03248047 -3.70964844 13.87746094 -4.10742188 14.74804688 C-5.06300701 16.83617735 -6.02743783 18.91973604 -7 21 C-7.1546875 20.0409375 -7.1546875 20.0409375 -7.3125 19.0625 C-7.539375 18.381875 -7.76625 17.70125 -8 17 C-8.99 16.67 -9.98 16.34 -11 16 C-10.195625 15.7525 -9.39125 15.505 -8.5625 15.25 C-5.89210912 14.30489384 -5.89210912 14.30489384 -5.3125 12.25 C-5.209375 11.5075 -5.10625 10.765 -5 10 C-2.79411765 2.79411765 -2.79411765 2.79411765 0 0 Z " fill="#163E81" transform="translate(202,459)"/>
<path d="M0 0 C0.33 1.32 0.66 2.64 1 4 C1.66 4 2.32 4 3 4 C2.71382813 4.56203125 2.42765625 5.1240625 2.1328125 5.703125 C0.98584069 8.02870923 -0.07839794 10.37770201 -1.125 12.75 C-1.47820312 13.54921875 -1.83140625 14.3484375 -2.1953125 15.171875 C-2.46085937 15.77515625 -2.72640625 16.3784375 -3 17 C-5 14 -5 14 -4.609375 11.9140625 C-4.32578125 11.15867187 -4.0421875 10.40328125 -3.75 9.625 C-3.45996094 8.83480469 -3.16992188 8.04460938 -2.87109375 7.23046875 C-2.58363281 6.49441406 -2.29617187 5.75835938 -2 5 C-1.4121875 3.4840625 -1.4121875 3.4840625 -0.8125 1.9375 C-0.544375 1.298125 -0.27625 0.65875 0 0 Z " fill="#17418A" transform="translate(71,582)"/>
<path d="M0 0 C0.66 0 1.32 0 2 0 C-0.05764921 6.45353615 -2.42383482 12.7361263 -5 19 C-7 15.25 -7 15.25 -7 13 C-6.34 13 -5.68 13 -5 13 C-4.32041397 10.60280568 -4.32041397 10.60280568 -4 8 C-4.66 7.34 -5.32 6.68 -6 6 C-4.68 5.67 -3.36 5.34 -2 5 C-2 4.34 -2 3.68 -2 3 C-1.34 3 -0.68 3 0 3 C0 2.01 0 1.02 0 0 Z " fill="#163879" transform="translate(171,531)"/>
<path d="M0 0 C0 1.65 0 3.3 0 5 C-0.99 5.33 -1.98 5.66 -3 6 C-3.33 6.99 -3.66 7.98 -4 9 C-4.99 9 -5.98 9 -7 9 C-7.33 9.66 -7.66 10.32 -8 11 C-8.66 11 -9.32 11 -10 11 C-8.25 6.125 -8.25 6.125 -6 5 C-6 3.68 -6 2.36 -6 1 C-3.92446352 0.4465236 -2.15634036 0 0 0 Z " fill="#276CD1" transform="translate(383,46)"/>
<path d="M0 0 C1.32 1.32 2.64 2.64 4 4 C3.34 4.66 2.68 5.32 2 6 C1.67 6.99 1.34 7.98 1 9 C-1.31 8.67 -3.62 8.34 -6 8 C-6 7.01 -6 6.02 -6 5 C-5.38125 4.731875 -4.7625 4.46375 -4.125 4.1875 C-1.7004767 3.04443152 -1.7004767 3.04443152 0 0 Z " fill="#133E8B" transform="translate(179,486)"/>
<path d="M0 0 C0.66 0.33 1.32 0.66 2 1 C1.67 1.66 1.34 2.32 1 3 C0.34 3 -0.32 3 -1 3 C-1.185625 4.2065625 -1.185625 4.2065625 -1.375 5.4375 C-1.58125 6.283125 -1.7875 7.12875 -2 8 C-2.99 8.495 -2.99 8.495 -4 9 C-4.33 8.34 -4.66 7.68 -5 7 C-5.99 6.67 -6.98 6.34 -8 6 C-8.33 5.01 -8.66 4.02 -9 3 C-4.25 2 -4.25 2 -2 2 C-1.34 1.34 -0.68 0.68 0 0 Z M-10 6 C-9.01 6.495 -9.01 6.495 -8 7 C-8 7.66 -8 8.32 -8 9 C-8.66 9 -9.32 9 -10 9 C-10 8.01 -10 7.02 -10 6 Z " fill="#174493" transform="translate(198,408)"/>
<path d="M0 0 C0.33 0.66 0.66 1.32 1 2 C1.66 2 2.32 2 3 2 C3 2.66 3 3.32 3 4 C4.98 3.67 6.96 3.34 9 3 C8.38722388 5.96175123 7.74627478 7.38058783 6 10 C4.125 9.8125 4.125 9.8125 2 9 C0.21715186 5.70173093 0 3.8225249 0 0 Z " fill="#225FBB" transform="translate(347,121)"/>
<path d="M0 0 C0.99 0.33 1.98 0.66 3 1 C2.67 1.928125 2.34 2.85625 2 3.8125 C0.85032996 6.92029291 0.85032996 6.92029291 1 10 C-0.98 10.99 -0.98 10.99 -3 12 C-3 12.66 -3 13.32 -3 14 C-3.66 14 -4.32 14 -5 14 C-3.45730076 9.27934033 -1.92205381 4.58335908 0 0 Z " fill="#1A458F" transform="translate(102,509)"/>
<path d="M0 0 C1.61949011 2.57213134 2.04408751 3.67669159 1.625 6.75 C1.41875 7.4925 1.2125 8.235 1 9 C0.34 9 -0.32 9 -1 9 C-1 8.34 -1 7.68 -1 7 C-3.99332739 7.9977758 -4.94766315 8.7522025 -7 11 C-7.6875 9.1875 -7.6875 9.1875 -8 7 C-6.8125 5.25 -6.8125 5.25 -5 4 C-3.68 4 -2.36 4 -1 4 C-1 3.34 -1 2.68 -1 2 C-1.66 1.67 -2.32 1.34 -3 1 C-2.01 0.67 -1.02 0.34 0 0 Z " fill="#2160BF" transform="translate(301,127)"/>
<path d="M0 0 C0.66 0.33 1.32 0.66 2 1 C2.625 3.5625 2.625 3.5625 3 6 C-3.625 9.125 -3.625 9.125 -7 8 C-7 7.34 -7 6.68 -7 6 C-5.01310269 4.64721885 -3.01254782 3.31431695 -1 2 C-0.67 1.34 -0.34 0.68 0 0 Z " fill="#2465C6" transform="translate(385,141)"/>
<path d="M0 0 C0.66 0.99 1.32 1.98 2 3 C1.67 3.66 1.34 4.32 1 5 C1.66 5 2.32 5 3 5 C3 5.99 3 6.98 3 8 C0.6875 8.625 0.6875 8.625 -2 9 C-2.99 8.34 -3.98 7.68 -5 7 C-1.125 1.125 -1.125 1.125 0 0 Z " fill="#184796" transform="translate(256,360)"/>
<path d="M0 0 C2.41720753 1.89172763 2.98963969 2.95855875 3.75 6 C4 9 4 9 3 12 C2.34 12 1.68 12 1 12 C-2 5.5 -2 5.5 -2 1 C-1.34 0.67 -0.68 0.34 0 0 Z " fill="#235CB7" transform="translate(398,233)"/>
<path d="M0 0 C3.26954202 0.56371414 4.82575883 1.49962266 7 4 C5.1875 5.5625 5.1875 5.5625 3 7 C2.01 6.67 1.02 6.34 0 6 C0 6.66 0 7.32 0 8 C-0.66 8 -1.32 8 -2 8 C-2.20086443 4.28400809 -2.1519437 3.22791555 0 0 Z " fill="#1F5EBE" transform="translate(395,223)"/>
<path d="M0 0 C0.99 0 1.98 0 3 0 C3.33 0.99 3.66 1.98 4 3 C3.34 3 2.68 3 2 3 C2.33 3.99 2.66 4.98 3 6 C2.01 6.33 1.02 6.66 0 7 C0 6.34 0 5.68 0 5 C-3.00259517 4.66781808 -3.00259517 4.66781808 -4.6875 6.5 C-5.120625 6.995 -5.55375 7.49 -6 8 C-6.33 7.34 -6.66 6.68 -7 6 C-6.67 5.01 -6.34 4.02 -6 3 C-5.195625 2.87625 -4.39125 2.7525 -3.5625 2.625 C-2.716875 2.41875 -1.87125 2.2125 -1 2 C-0.67 1.34 -0.34 0.68 0 0 Z " fill="#266BD0" transform="translate(332,37)"/>
<path d="M0 0 C0.99 0.33 1.98 0.66 3 1 C3 1.66 3 2.32 3 3 C2.01 2.67 1.02 2.34 0 2 C0 1.34 0 0.68 0 0 Z M-3 3 C-1.68 3 -0.36 3 1 3 C1 4.98 1 6.96 1 9 C0.01 9.33 -0.98 9.66 -2 10 C-2.99 8.68 -3.98 7.36 -5 6 C-4.34 5.01 -3.68 4.02 -3 3 Z " fill="#184A9B" transform="translate(464,480)"/>
<path d="M0 0 C1.98 0 3.96 0 6 0 C6 1.65 6 3.3 6 5 C2.37 5 -1.26 5 -5 5 C-3.68 4.34 -2.36 3.68 -1 3 C-0.67 2.01 -0.34 1.02 0 0 Z " fill="#0B2C69" transform="translate(85,687)"/>
<path d="M0 0 C1.9375 0.3125 1.9375 0.3125 4 1 C5.04449911 4.13349732 4.93423645 4.98968256 4 8 C3.34 8 2.68 8 2 8 C2 8.66 2 9.32 2 10 C1.34 10 0.68 10 0 10 C-1.125 3.375 -1.125 3.375 0 0 Z " fill="#1F57AF" transform="translate(470,344)"/>
<path d="M0 0 C0.66 0.33 1.32 0.66 2 1 C-0.64 7.27 -3.28 13.54 -6 20 C-6.33 20 -6.66 20 -7 20 C-7.20086443 16.28400809 -7.1519437 15.22791555 -5 12 C-4.690625 10.88625 -4.38125 9.7725 -4.0625 8.625 C-3.08363263 5.28533486 -1.91661781 2.87492672 0 0 Z " fill="#143776" transform="translate(163,551)"/>
<path d="M0 0 C1.32 0 2.64 0 4 0 C2.36041242 5.23272633 0.61047965 10.15196636 -2 15 C-2.98247098 11.9434236 -3.07716184 10.03563791 -2 7 C-1.34 6.01 -0.68 5.02 0 4 C0 2.68 0 1.36 0 0 Z " fill="#13397B" transform="translate(176,515)"/>
<path d="M0 0 C1 3 1 3 0.00390625 5.48046875 C-0.47175781 6.37378906 -0.94742188 7.26710938 -1.4375 8.1875 C-1.91058594 9.08855469 -2.38367188 9.98960937 -2.87109375 10.91796875 C-3.24363281 11.60503906 -3.61617187 12.29210937 -4 13 C-4.66 12.67 -5.32 12.34 -6 12 C-6.625 9.9375 -6.625 9.9375 -7 8 C-6.21625 7.4225 -5.4325 6.845 -4.625 6.25 C-2.19952756 4.17102363 -1.14305583 2.90959667 0 0 Z " fill="#13377B" transform="translate(154,573)"/>
<path d="M0 0 C3 0 3 0 6 1 C4.68 4.3 3.36 7.6 2 11 C1.34 9.68 0.68 8.36 0 7 C0.875 4.75 0.875 4.75 2 3 C1.34 3 0.68 3 0 3 C-0.33 3.99 -0.66 4.98 -1 6 C-1.042721 4.33388095 -1.04063832 2.66617115 -1 1 C-0.67 0.67 -0.34 0.34 0 0 Z " fill="#17428A" transform="translate(237,364)"/>
<path d="M0 0 C0.66 0 1.32 0 2 0 C2 0.99 2 1.98 2 3 C2.99 3.33 3.98 3.66 5 4 C4.34 5.65 3.68 7.3 3 9 C0.69 8.67 -1.62 8.34 -4 8 C-3.34 7.4225 -2.68 6.845 -2 6.25 C0.44290923 4.00346023 0.44290923 4.00346023 0 0 Z " fill="#2368CE" transform="translate(320,24)"/>
<path d="M0 0 C0.99 0 1.98 0 3 0 C3.66 1.32 4.32 2.64 5 4 C4.01 4.495 4.01 4.495 3 5 C3 5.66 3 6.32 3 7 C2.34 7 1.68 7 1 7 C0.67 7.66 0.34 8.32 0 9 C-0.99 8.34 -1.98 7.68 -3 7 C-2.01 4.69 -1.02 2.38 0 0 Z " fill="#164596" transform="translate(228,365)"/>
<path d="M0 0 C0.99 0 1.98 0 3 0 C2.57476184 1.60746056 2.13429874 3.21089836 1.6875 4.8125 C1.44386719 5.70582031 1.20023438 6.59914063 0.94921875 7.51953125 C-0.0200819 10.05247738 -0.95009604 11.2716496 -3 13 C-2.88490339 11.58249437 -2.75746342 10.16598831 -2.625 8.75 C-2.55539063 7.96109375 -2.48578125 7.1721875 -2.4140625 6.359375 C-1.98492887 3.914123 -1.21399362 2.15163097 0 0 Z " fill="#245BB1" transform="translate(208,260)"/>
<path d="M0 0 C0.66 0.33 1.32 0.66 2 1 C1.75 2.875 1.75 2.875 1 5 C-1.0625 6.25 -1.0625 6.25 -3 7 C-3.99 6.34 -4.98 5.68 -6 5 C-5.67 3.68 -5.34 2.36 -5 1 C-3.02 1.495 -3.02 1.495 -1 2 C-0.67 1.34 -0.34 0.68 0 0 Z " fill="#184A9A" transform="translate(530,510)"/>
<path d="M0 0 C1.70840281 1.63412443 2.93453047 2.86906094 4 5 C4.99 5.66 5.98 6.32 7 7 C6.67 7.99 6.34 8.98 6 10 C1.36285097 8.53563715 1.36285097 8.53563715 -0.3125 6.0625 C-1 4 -1 4 -1 1 C-0.67 0.67 -0.34 0.34 0 0 Z " fill="#174694" transform="translate(169,385)"/>
<path d="M0 0 C0.66 0.33 1.32 0.66 2 1 C-0.31 6.61 -2.62 12.22 -5 18 C-6.22173407 13.1130637 -5.24216473 12.31185525 -3 8 C-2.29241674 4.7633037 -2.29241674 4.7633037 -2 2 C-1.34 2 -0.68 2 0 2 C0 1.34 0 0.68 0 0 Z " fill="#123472" transform="translate(141,603)"/>
<path d="M0 0 C1.65 0 3.3 0 5 0 C5 3 5 3 4 5 C3.34 5 2.68 5 2 5 C1.67 5.99 1.34 6.98 1 8 C-1 5 -1 5 -0.625 2.3125 C-0.41875 1.549375 -0.2125 0.78625 0 0 Z " fill="#194795" transform="translate(167,399)"/>
<path d="M0 0 C0.66 0.33 1.32 0.66 2 1 C2 1.99 2 2.98 2 4 C0.68 4.33 -0.64 4.66 -2 5 C-1.67 6.65 -1.34 8.3 -1 10 C-1.99 10 -2.98 10 -4 10 C-4.66 8.35 -5.32 6.7 -6 5 C-4.02 3.35 -2.04 1.7 0 0 Z " fill="#2160C0" transform="translate(336,136)"/>
<path d="M0 0 C0.33 0.99 0.66 1.98 1 3 C0.67 3.66 0.34 4.32 0 5 C-0.66 5 -1.32 5 -2 5 C-2 5.66 -2 6.32 -2 7 C-0.35 6.67 1.3 6.34 3 6 C3 6.66 3 7.32 3 8 C0.03 8 -2.94 8 -6 8 C-4.52307692 2.33846154 -4.52307692 2.33846154 -1.875 0.625 C-0.946875 0.315625 -0.946875 0.315625 0 0 Z " fill="#11377A" transform="translate(31,684)"/>
<path d="M0 0 C1.32 0.66 2.64 1.32 4 2 C2.07119658 5.40755272 0.1723491 8.74147635 -2 12 C-3.6442351 7.06729471 -2.18615592 4.45975807 0 0 Z " fill="#17428D" transform="translate(75,573)"/>
<path d="M0 0 C0.928125 0.2784375 0.928125 0.2784375 1.875 0.5625 C4.04160178 1.23686176 4.04160178 1.23686176 6 0 C6.66 1.65 7.32 3.3 8 5 C7.01 5.66 6.02 6.32 5 7 C3.29115995 5.37660195 1.62553283 3.70680947 0 2 C0 1.34 0 0.68 0 0 Z " fill="#133B85" transform="translate(105,532)"/>
<path d="M0 0 C2 3 2 3 1.75 5.0625 C1 7 1 7 -1 9 C-1.66 9 -2.32 9 -3 9 C-3.33 7.02 -3.66 5.04 -4 3 C-3.01 2.67 -2.02 2.34 -1 2 C-0.67 1.34 -0.34 0.68 0 0 Z " fill="#1E57AC" transform="translate(440,323)"/>
<path d="M0 0 C2.1875 1.4375 2.1875 1.4375 4 3 C3.67 3.66 3.34 4.32 3 5 C0.03 5 -2.94 5 -6 5 C-5.67 3.68 -5.34 2.36 -5 1 C-4.34 1 -3.68 1 -3 1 C-2.01 0.67 -1.02 0.34 0 0 Z " fill="#0F3073" transform="translate(46,671)"/>
<path d="M0 0 C0.66 0.33 1.32 0.66 2 1 C-0.475 6.94 -0.475 6.94 -3 13 C-4.1054086 9.68377419 -4.35457365 7.47482175 -4 4 C-2 1.625 -2 1.625 0 0 Z " fill="#123676" transform="translate(147,589)"/>
<path d="M0 0 C2.475 0.99 2.475 0.99 5 2 C5 2.99 5 3.98 5 5 C3 6.6875 3 6.6875 1 8 C0.01 7.01 -0.98 6.02 -2 5 C-1.34 3.35 -0.68 1.7 0 0 Z " fill="#143E8A" transform="translate(160,466)"/>
<path d="M0 0 C2.9375 0.375 2.9375 0.375 6 1 C6.33 1.66 6.66 2.32 7 3 C6.34 3 5.68 3 5 3 C5 3.99 5 4.98 5 6 C3.02 5.34 1.04 4.68 -1 4 C-0.67 2.68 -0.34 1.36 0 0 Z " fill="#174797" transform="translate(298,382)"/>
<path d="M0 0 C1.32 0.66 2.64 1.32 4 2 C4 2.99 4 3.98 4 5 C2.35 5.33 0.7 5.66 -1 6 C-1.66 4.68 -2.32 3.36 -3 2 C-2.01 1.34 -1.02 0.68 0 0 Z " fill="#205AB6" transform="translate(455,296)"/>
<path d="M0 0 C0 0.66 0 1.32 0 2 C-0.66 2 -1.32 2 -2 2 C-2 2.66 -2 3.32 -2 4 C-5.465 5.485 -5.465 5.485 -9 7 C-8.75 5.125 -8.75 5.125 -8 3 C-6.0625 1.8125 -6.0625 1.8125 -4 1 C-2 0 -2 0 0 0 Z " fill="#2262C3" transform="translate(456,204)"/>
<path d="M0 0 C2.4375 0.75 2.4375 0.75 5 2 C5.8125 4.125 5.8125 4.125 6 6 C4.35 6.33 2.7 6.66 1 7 C0.34 5.02 -0.32 3.04 -1 1 C-0.67 0.67 -0.34 0.34 0 0 Z " fill="#14408D" transform="translate(177,459)"/>
<path d="M0 0 C4.3488459 0.50178991 6.89443878 3.09697538 10 6 C11.375 8.3125 11.375 8.3125 12 10 C8.78727751 8.56006357 6.3793336 6.76981628 3.75 4.4375 C3.04359375 3.81746094 2.3371875 3.19742187 1.609375 2.55859375 C1.07828125 2.04425781 0.5471875 1.52992188 0 1 C0 0.67 0 0.34 0 0 Z " fill="#215AAB" transform="translate(471,429)"/>
<path d="M0 0 C0.99 1.32 1.98 2.64 3 4 C2.34 4.66 1.68 5.32 1 6 C0.83312552 8.58354218 0.83312552 8.58354218 1 11 C0.34 11 -0.32 11 -1 11 C-1 10.34 -1 9.68 -1 9 C-1.66 9 -2.32 9 -3 9 C-2.01 6.03 -1.02 3.06 0 0 Z " fill="#1A4793" transform="translate(138,424)"/>
<path d="M0 0 C3 2 3 2 3.8125 4.5 C3.874375 5.325 3.93625 6.15 4 7 C3.34 7.66 2.68 8.32 2 9 C1.34 8.01 0.68 7.02 0 6 C-0.66 6 -1.32 6 -2 6 C-1.125 1.125 -1.125 1.125 0 0 Z " fill="#205DBB" transform="translate(404,240)"/>
<path d="M0 0 C0.66 0 1.32 0 2 0 C0.62845496 2.95409701 -0.98863724 5.44008376 -3 8 C-4.32 7.34 -5.64 6.68 -7 6 C-7 5.34 -7 4.68 -7 4 C-3.25 2 -3.25 2 -1 2 C-0.67 1.34 -0.34 0.68 0 0 Z " fill="#1F5DBB" transform="translate(277,177)"/>
<path d="M0 0 C0.9659657 2.60810739 1.02770914 3.89420147 0.3125 6.625 C-1.16625774 9.30084735 -2.17750049 9.96508351 -5 11 C-4.67 9.35 -4.34 7.7 -4 6 C-3.34 6 -2.68 6 -2 6 C-1.34 4.02 -0.68 2.04 0 0 Z " fill="#2B6FD2" transform="translate(287,78)"/>
<path d="M0 0 C0.66 0 1.32 0 2 0 C2 2.64 2 5.28 2 8 C0.35 7.67 -1.3 7.34 -3 7 C-3 3.47967572 -2.29648649 2.5614657 0 0 Z " fill="#15408C" transform="translate(132,466)"/>
<path d="M0 0 C0.66 0.33 1.32 0.66 2 1 C1.00233891 3.49415272 0.31383315 4.78740335 -1.9375 6.3125 C-4 7 -4 7 -7 6 C-2.25 1.125 -2.25 1.125 0 0 Z " fill="#17479B" transform="translate(342,398)"/>
<path d="M0 0 C5.44208234 0.34013015 8.93668198 3.70296528 13 7 C12.01 7.33 11.02 7.66 10 8 C7.51953125 6.6015625 7.51953125 6.6015625 4.8125 4.625 C3.91144531 3.97789062 3.01039063 3.33078125 2.08203125 2.6640625 C1.39496094 2.11492187 0.70789063 1.56578125 0 1 C0 0.67 0 0.34 0 0 Z " fill="#265DAD" transform="translate(418,390)"/>
<path d="M0 0 C0.99 0.66 1.98 1.32 3 2 C2.67 3.98 2.34 5.96 2 8 C1.01 8.33 0.02 8.66 -1 9 C-1.625 5.625 -1.625 5.625 -2 2 C-1.34 1.34 -0.68 0.68 0 0 Z " fill="#205BB6" transform="translate(447,293)"/>
<path d="M0 0 C0.33 1.32 0.66 2.64 1 4 C0.05125 4.45375 -0.8975 4.9075 -1.875 5.375 C-5.00313679 6.80238254 -5.00313679 6.80238254 -7 9 C-7 5.42424104 -5.91159393 3.94704065 -4 1 C-2.68 1.33 -1.36 1.66 0 2 C0 1.34 0 0.68 0 0 Z " fill="#2362C3" transform="translate(449,230)"/>
<path d="M0 0 C0.99 0 1.98 0 3 0 C1.77472971 4.05281712 0.30119506 7.44360764 -2 11 C-2.95465783 8.83032311 -3.14401212 7.43671207 -2.3984375 5.17578125 C-1.64129615 3.4315257 -0.82390802 1.71372869 0 0 Z " fill="#2763BD" transform="translate(234,198)"/>
<path d="M0 0 C0.99 0 1.98 0 3 0 C2.34 1.32 1.68 2.64 1 4 C0.34 4 -0.32 4 -1 4 C-0.67 2.68 -0.34 1.36 0 0 Z M-2 4 C-1.01 4.99 -0.02 5.98 1 7 C0.34 7.66 -0.32 8.32 -1 9 C-1.99 9 -2.98 9 -4 9 C-3.34 7.35 -2.68 5.7 -2 4 Z " fill="#2668CB" transform="translate(305,51)"/>
<path d="M0 0 C0 0.66 0 1.32 0 2 C-0.66 2 -1.32 2 -2 2 C-1.67 3.65 -1.34 5.3 -1 7 C-2.32 7.33 -3.64 7.66 -5 8 C-5 5.69 -5 3.38 -5 1 C-2 0 -2 0 0 0 Z " fill="#2058B2" transform="translate(438,314)"/>
<path d="M0 0 C0.99 0.99 1.98 1.98 3 3 C2.34 4.65 1.68 6.3 1 8 C0.34 8 -0.32 8 -1 8 C-1.625 5.6875 -1.625 5.6875 -2 3 C-1.34 2.01 -0.68 1.02 0 0 Z " fill="#1B5CBE" transform="translate(379,188)"/>
<path d="M0 0 C0.33 0.66 0.66 1.32 1 2 C3.02463255 2.65213292 3.02463255 2.65213292 5 3 C4.67 3.99 4.34 4.98 4 6 C2.02 6.33 0.04 6.66 -2 7 C-1.34 4.69 -0.68 2.38 0 0 Z " fill="#2762BA" transform="translate(261,134)"/>
<path d="M0 0 C0.66 0.66 1.32 1.32 2 2 C1.74739753 5.78903708 -0.27849443 7.54186593 -3 10 C-3 5.73195001 -2.38932765 3.58399147 0 0 Z " fill="#2469CC" transform="translate(414,104)"/>
<path d="M0 0 C0.66 0.33 1.32 0.66 2 1 C2 1.66 2 2.32 2 3 C4.31 3 6.62 3 9 3 C9 3.33 9 3.66 9 4 C3.72 4 -1.56 4 -7 4 C-6.67 3.34 -6.34 2.68 -6 2 C-4.35 2.33 -2.7 2.66 -1 3 C-0.67 2.01 -0.34 1.02 0 0 Z " fill="#0A2963" transform="translate(70,688)"/>
<path d="M0 0 C0.99 0 1.98 0 3 0 C2.835 0.598125 2.67 1.19625 2.5 1.8125 C1.8885876 4.11344336 1.8885876 4.11344336 2 7 C0.02 6.34 -1.96 5.68 -4 5 C-2.1875 2.5 -2.1875 2.5 0 0 Z " fill="#184694" transform="translate(326,393)"/>
<path d="M0 0 C0.928125 0.2784375 0.928125 0.2784375 1.875 0.5625 C4.04160178 1.23686176 4.04160178 1.23686176 6 0 C6.33 1.98 6.66 3.96 7 6 C6.01 6.495 6.01 6.495 5 7 C5 6.34 5 5.68 5 5 C4.01 5 3.02 5 2 5 C1.34 3.35 0.68 1.7 0 0 Z " fill="#1F56AD" transform="translate(491,371)"/>
<path d="M0 0 C4.3890815 0.51035831 7.33708062 1.52214277 11 4 C9.02 4.99 9.02 4.99 7 6 C6.5875 5.54625 6.175 5.0925 5.75 4.625 C3.93591905 2.94049626 2.24714373 2.00734029 0 1 C0 0.67 0 0.34 0 0 Z " fill="#215CAD" transform="translate(278,315)"/>
<path d="M0 0 C1.15957207 3.47871621 0.77456651 4.34219645 -0.4375 7.6875 C-0.86869141 8.89986328 -0.86869141 8.89986328 -1.30859375 10.13671875 C-1.53675781 10.75160156 -1.76492187 11.36648438 -2 12 C-2.66 12 -3.32 12 -4 12 C-3.45660208 7.43545749 -2.20536179 4.0271824 0 0 Z " fill="#275FB5" transform="translate(203,273)"/>
<path d="M0 0 C1.32 1.32 2.64 2.64 4 4 C1.625 5.0625 1.625 5.0625 -1 6 C-1.66 5.67 -2.32 5.34 -3 5 C-1.125 1.125 -1.125 1.125 0 0 Z " fill="#215EBD" transform="translate(277,163)"/>
<path d="M0 0 C1.32 0 2.64 0 4 0 C3.01 3.3 2.02 6.6 1 10 C-1.56687367 6.1496895 -0.83288724 4.41430237 0 0 Z " fill="#12316D" transform="translate(121,645)"/>
<path d="M0 0 C2.64 0.33 5.28 0.66 8 1 C8 1.66 8 2.32 8 3 C4.37 3 0.74 3 -3 3 C-3.33 2.34 -3.66 1.68 -4 1 C-2.68 1.33 -1.36 1.66 0 2 C0 1.34 0 0.68 0 0 Z " fill="#164086" transform="translate(548,552)"/>
<path d="M0 0 C0.99 0 1.98 0 3 0 C2.54917531 1.46067199 2.08906463 2.91848032 1.625 4.375 C1.36976563 5.18710937 1.11453125 5.99921875 0.8515625 6.8359375 C0 9 0 9 -2 11 C-1 3.57142857 -1 3.57142857 0 0 Z " fill="#194083" transform="translate(191,481)"/>
<path d="M0 0 C0.66 0.33 1.32 0.66 2 1 C2 5 2 5 0.5 6.75 C0.005 7.1625 -0.49 7.575 -1 8 C-1.99 7.67 -2.98 7.34 -4 7 C-2.68 4.69 -1.36 2.38 0 0 Z " fill="#184A9D" transform="translate(529,467)"/>
<path d="M0 0 C0.66 0 1.32 0 2 0 C1.39301257 4.12751449 -0.03810791 7.3321148 -2 11 C-2.66 11 -3.32 11 -4 11 C-3.52269162 9.5410574 -3.04308958 8.08286504 -2.5625 6.625 C-2.29566406 5.81289063 -2.02882812 5.00078125 -1.75390625 4.1640625 C-1 2 -1 2 0 0 Z " fill="#2557A2" transform="translate(182,321)"/>
<path d="M0 0 C0.66 0 1.32 0 2 0 C3.6442351 4.93270529 2.18615592 7.54024193 0 12 C-1.53166168 7.91556885 -0.63081652 4.20544343 0 0 Z " fill="#1C4A97" transform="translate(271,289)"/>
<path d="M0 0 C0 3 0 3 -2 5.1875 C-2.66 5.785625 -3.32 6.38375 -4 7 C-4.625 5.125 -4.625 5.125 -5 3 C-4.34 2.34 -3.68 1.68 -3 1 C-2.34 1 -1.68 1 -1 1 C-0.67 0.67 -0.34 0.34 0 0 Z M-7 8 C-6.01 8.495 -6.01 8.495 -5 9 C-5.33 9.66 -5.66 10.32 -6 11 C-6.33 10.01 -6.66 9.02 -7 8 Z " fill="#2463C2" transform="translate(415,219)"/>
<path d="M0 0 C0.95465783 2.16967689 1.14401212 3.56328793 0.3984375 5.82421875 C-0.35870385 7.5684743 -1.17609198 9.28627131 -2 11 C-2.66 11 -3.32 11 -4 11 C-4.56638908 6.18569279 -2.82561627 3.79692186 0 0 Z " fill="#2258A7" transform="translate(319,181)"/>
<path d="M0 0 C0.33 0.66 0.66 1.32 1 2 C1.66 2 2.32 2 3 2 C3 2.66 3 3.32 3 4 C3.66 4.33 4.32 4.66 5 5 C5 6.98 5 8.96 5 11 C2.27042661 8.64264116 1.11106604 6.41866474 0 3 C0 2.01 0 1.02 0 0 Z " fill="#235DB4" transform="translate(365,163)"/>
<path d="M0 0 C0.66 0.66 1.32 1.32 2 2 C1.34 4.31 0.68 6.62 0 9 C-0.99 8.34 -1.98 7.68 -3 7 C-2.25 2.25 -2.25 2.25 0 0 Z " fill="#2464C7" transform="translate(414,151)"/>
<path d="M0 0 C0.99 0.495 0.99 0.495 2 1 C1.67 1.99 1.34 2.98 1 4 C0.67 2.68 0.34 1.36 0 0 Z M-3 2 C-2.67 2.66 -2.34 3.32 -2 4 C-1.34 4.33 -0.68 4.66 0 5 C-0.66 6.32 -1.32 7.64 -2 9 C-2.99 9 -3.98 9 -5 9 C-4.34 6.69 -3.68 4.38 -3 2 Z " fill="#2765BD" transform="translate(272,113)"/>
<path d="M0 0 C0.66 0.33 1.32 0.66 2 1 C-0.625 5.875 -0.625 5.875 -4 7 C-4.33 5.35 -4.66 3.7 -5 2 C-4.360625 1.855625 -3.72125 1.71125 -3.0625 1.5625 C-1.02454854 1.18992819 -1.02454854 1.18992819 0 0 Z " fill="#194796" transform="translate(185,401)"/>
<path d="M0 0 C0.66 0 1.32 0 2 0 C5.07692308 6.4 5.07692308 6.4 4.6875 9.4375 C4.460625 9.953125 4.23375 10.46875 4 11 C1 5.25 1 5.25 1 3 C0.34 2.67 -0.32 2.34 -1 2 C-0.67 1.34 -0.34 0.68 0 0 Z " fill="#2158AD" transform="translate(472,229)"/>
<path d="M0 0 C0.33 0.66 0.66 1.32 1 2 C1.99 2 2.98 2 4 2 C3.34 3.32 2.68 4.64 2 6 C0.68 5.67 -0.64 5.34 -2 5 C-1.125 1.125 -1.125 1.125 0 0 Z " fill="#1E5CB9" transform="translate(387,207)"/>
<path d="M0 0 C0.66 0 1.32 0 2 0 C1.6875 1.9375 1.6875 1.9375 1 4 C0.01 4.33 -0.98 4.66 -2 5 C-2 5.66 -2 6.32 -2 7 C-2.99 7.33 -3.98 7.66 -5 8 C-5.33 7.01 -5.66 6.02 -6 5 C-5.195625 4.731875 -4.39125 4.46375 -3.5625 4.1875 C-2.716875 3.795625 -1.87125 3.40375 -1 3 C-0.67 2.01 -0.34 1.02 0 0 Z " fill="#2467CB" transform="translate(355,86)"/>
<path d="M0 0 C0.91058531 3.07322544 1.08886184 5.80097361 1 9 C-0.98 9.99 -0.98 9.99 -3 11 C-2.44894091 7.0507432 -1.61064629 3.65079826 0 0 Z " fill="#3270C5" transform="translate(295,54)"/>
<path d="M0 0 C0.66 0.66 1.32 1.32 2 2 C1.25 3.9375 1.25 3.9375 0 6 C-2.125 6.75 -2.125 6.75 -4 7 C-4 4 -4 4 -3 2 C-2.01 2 -1.02 2 0 2 C0 1.34 0 0.68 0 0 Z " fill="#266DD3" transform="translate(337,27)"/>
<path d="M0 0 C2 3 2 3 2 7 C1.01 7.66 0.02 8.32 -1 9 C-1.66 8.34 -2.32 7.68 -3 7 C-2.01 4.69 -1.02 2.38 0 0 Z " fill="#173C81" transform="translate(47,639)"/>
<path d="M0 0 C1.04449911 3.13349732 0.93423645 3.98968256 0 7 C-0.99 6.67 -1.98 6.34 -3 6 C-3.6875 3.9375 -3.6875 3.9375 -4 2 C-2.68 1.34 -1.36 0.68 0 0 Z " fill="#11377E" transform="translate(97,567)"/>
<path d="M0 0 C1.65 0.33 3.3 0.66 5 1 C5 1.99 5 2.98 5 4 C3.02 4.33 1.04 4.66 -1 5 C-0.67 3.35 -0.34 1.7 0 0 Z " fill="#154496" transform="translate(541,541)"/>
<path d="M0 0 C2.96052484 3.36423277 3.92289822 6.69159287 5 11 C2.36750651 8.54300608 0.21862736 6.43431346 -1 3 C-0.67 2.01 -0.34 1.02 0 0 Z " fill="#1C458A" transform="translate(593,509)"/>
<path d="M0 0 C1.39195915 4.17587745 -0.17676781 6.13474776 -2 10 C-3.32 9.34 -4.64 8.68 -6 8 C-5.525625 7.566875 -5.05125 7.13375 -4.5625 6.6875 C-2.76313043 4.97690387 -2.76313043 4.97690387 -2 2 C-1.34 2 -0.68 2 0 2 C0 1.34 0 0.68 0 0 Z " fill="#163E85" transform="translate(188,492)"/>
<path d="M0 0 C0.93423645 3.01031744 1.04449911 3.86650268 0 7 C0.66 7.66 1.32 8.32 2 9 C0.68 9.99 -0.64 10.98 -2 12 C-3.6442351 7.06729471 -2.18615592 4.45975807 0 0 Z " fill="#1C4A96" transform="translate(127,450)"/>
<path d="M0 0 C1.65 0.33 3.3 0.66 5 1 C4 3 4 3 2 6 C1.01 6 0.02 6 -1 6 C-0.67 4.02 -0.34 2.04 0 0 Z " fill="#19499C" transform="translate(280,359)"/>
<path d="M0 0 C0.33 0 0.66 0 1 0 C1.25 5.625 1.25 5.625 -1 9 C-1.99 8.67 -2.98 8.34 -4 8 C-4 7.34 -4 6.68 -4 6 C-3.34 6 -2.68 6 -2 6 C-1.67 5.01 -1.34 4.02 -1 3 C-0.67 2.01 -0.34 1.02 0 0 Z " fill="#225DB5" transform="translate(327,160)"/>
<path d="M0 0 C0.33 0 0.66 0 1 0 C0.38461538 6.52307692 0.38461538 6.52307692 -1.5625 8.9375 C-2.036875 9.288125 -2.51125 9.63875 -3 10 C-2.25 3.375 -2.25 3.375 0 0 Z " fill="#174290" transform="translate(31,678)"/>
<path d="M0 0 C2.31 0.33 4.62 0.66 7 1 C7 1.99 7 2.98 7 4 C5.125 4.625 5.125 4.625 3 5 C1 3 1 3 0 0 Z " fill="#12367B" transform="translate(136,589)"/>
<path d="M0 0 C0.33 0.66 0.66 1.32 1 2 C0.67 2.99 0.34 3.98 0 5 C-2.0625 5.6875 -2.0625 5.6875 -4 6 C-4 5.01 -4 4.02 -4 3 C-2 1.3125 -2 1.3125 0 0 Z " fill="#143C85" transform="translate(128,539)"/>
<path d="M0 0 C0.66 0 1.32 0 2 0 C1.01 2.97 0.02 5.94 -1 9 C-1.33 7.68 -1.66 6.36 -2 5 C-2.99 4.67 -3.98 4.34 -5 4 C-4.34 4 -3.68 4 -3 4 C-2.67 3.34 -2.34 2.68 -2 2 C-1.34 1.34 -0.68 0.68 0 0 Z " fill="#183D80" transform="translate(208,443)"/>
<path d="M0 0 C1.32 0 2.64 0 4 0 C3.67 0.99 3.34 1.98 3 3 C2.34 3 1.68 3 1 3 C0.67 4.32 0.34 5.64 0 7 C-0.66 6.67 -1.32 6.34 -2 6 C-1.34 4.02 -0.68 2.04 0 0 Z " fill="#1F5AB8" transform="translate(260,164)"/>
<path d="M0 0 C0.66 0 1.32 0 2 0 C2.6875 1.8125 2.6875 1.8125 3 4 C1.5625 5.75 1.5625 5.75 0 7 C-0.66 6.01 -1.32 5.02 -2 4 C-1.34 2.68 -0.68 1.36 0 0 Z " fill="#2566C8" transform="translate(300,86)"/>
<path d="M0 0 C1.98 0.66 3.96 1.32 6 2 C5.34 3.32 4.68 4.64 4 6 C3.34 5.34 2.68 4.68 2 4 C1.01 4 0.02 4 -1 4 C-0.67 2.68 -0.34 1.36 0 0 Z " fill="#266CD1" transform="translate(381,63)"/>
<path d="M0 0 C0 3.20395416 -0.74335022 5.09399739 -2 8 C-3.32 7.34 -4.64 6.68 -6 6 C-6 5.34 -6 4.68 -6 4 C-5.01 4 -4.02 4 -3 4 C-1.29467677 2.05990478 -1.29467677 2.05990478 0 0 Z " fill="#153F8A" transform="translate(133,487)"/>
<path d="M0 0 C1.67542976 0.28604898 3.34385343 0.61781233 5 1 C4.34 2.32 3.68 3.64 3 5 C2.01 5 1.02 5 0 5 C-0.5625 3.0625 -0.5625 3.0625 -1 1 C-0.67 0.67 -0.34 0.34 0 0 Z " fill="#16479A" transform="translate(548,484)"/>
<path d="M0 0 C1.65 0.33 3.3 0.66 5 1 C5.33 1.99 5.66 2.98 6 4 C5.01 4.495 5.01 4.495 4 5 C1.375 4.0625 1.375 4.0625 -1 3 C-0.67 2.01 -0.34 1.02 0 0 Z " fill="#14408A" transform="translate(138,451)"/>
<path d="M0 0 C0.66 0 1.32 0 2 0 C1.37240135 2.92879371 0.41377341 5.36095629 -1 8 C-1.66 8 -2.32 8 -3 8 C-2.45276317 4.62537285 -1.9451 2.91765 0 0 Z " fill="#184795" transform="translate(150,403)"/>
<path d="M0 0 C3.34373475 0.55728913 6.03312999 1.35173889 9 3 C9 3.66 9 4.32 9 5 C5.85262818 4.30058404 2.97411124 3.23921302 0 2 C0 1.34 0 0.68 0 0 Z " fill="#275FAE" transform="translate(339,343)"/>
<path d="M0 0 C1.32 0.66 2.64 1.32 4 2 C4 2.66 4 3.32 4 4 C2.35 4.33 0.7 4.66 -1 5 C-1.33 4.01 -1.66 3.02 -2 2 C-1.34 1.34 -0.68 0.68 0 0 Z " fill="#2262C4" transform="translate(436,192)"/>
<path d="M0 0 C0.66 0.66 1.32 1.32 2 2 C2.99 2 3.98 2 5 2 C3.71034824 3.37562854 2.37310707 4.70766393 1 6 C0.34 6 -0.32 6 -1 6 C-1.33 5.01 -1.66 4.02 -2 3 C-1.34 2.01 -0.68 1.02 0 0 Z " fill="#2468CA" transform="translate(324,82)"/>
<path d="M0 0 C0.99 0.33 1.98 0.66 3 1 C1.25 4.875 1.25 4.875 -1 6 C-1 5.34 -1 4.68 -1 4 C-1.99 3.67 -2.98 3.34 -4 3 C-3.01 2.67 -2.02 2.34 -1 2 C-0.67 1.34 -0.34 0.68 0 0 Z " fill="#103478" transform="translate(111,619)"/>
<path d="M0 0 C0.99 0 1.98 0 3 0 C3.33 0.66 3.66 1.32 4 2 C3.01 2.99 2.02 3.98 1 5 C0.01 4.67 -0.98 4.34 -2 4 C-1.34 2.68 -0.68 1.36 0 0 Z " fill="#1F58B1" transform="translate(485,354)"/>
<path d="M0 0 C0.66 0.33 1.32 0.66 2 1 C2 1.66 2 2.32 2 3 C2.66 3 3.32 3 4 3 C4 3.99 4 4.98 4 6 C2.0625 5.1875 2.0625 5.1875 0 4 C-0.33 3.01 -0.66 2.02 -1 1 C-0.67 0.67 -0.34 0.34 0 0 Z " fill="#215AB3" transform="translate(458,319)"/>
<path d="M0 0 C1.98 0.99 1.98 0.99 4 2 C4 3.32 4 4.64 4 6 C3.01 6.33 2.02 6.66 1 7 C0.67 4.69 0.34 2.38 0 0 Z " fill="#1F5DBD" transform="translate(283,184)"/>
<path d="M0 0 C1.98 0.495 1.98 0.495 4 1 C3.34 2.65 2.68 4.3 2 6 C1.01 5.34 0.02 4.68 -1 4 C-0.67 2.68 -0.34 1.36 0 0 Z " fill="#286ED3" transform="translate(346,44)"/>
<path d="M0 0 C2.125 0.9375 2.125 0.9375 4 2 C2.35 3.32 0.7 4.64 -1 6 C-1.33 4.35 -1.66 2.7 -2 1 C-1.34 0.67 -0.68 0.34 0 0 Z " fill="#133A83" transform="translate(118,542)"/>
<path d="M0 0 C0.99 0.33 1.98 0.66 3 1 C3 2.98 3 4.96 3 7 C2.01 7 1.02 7 0 7 C-0.93423645 3.98968256 -1.04449911 3.13349732 0 0 Z " fill="#14408C" transform="translate(138,478)"/>
<path d="M0 0 C0.99 0.66 1.98 1.32 3 2 C2.01 4.31 1.02 6.62 0 9 C-0.66 8.01 -1.32 7.02 -2 6 C-1.125 2.8125 -1.125 2.8125 0 0 Z " fill="#1A4286" transform="translate(234,378)"/>
<path d="M0 0 C4.75 0.875 4.75 0.875 7 2 C7 2.99 7 3.98 7 5 C5.68 4.67 4.36 4.34 3 4 C3 3.34 3 2.68 3 2 C2.01 1.67 1.02 1.34 0 1 C0 0.67 0 0.34 0 0 Z " fill="#215CB2" transform="translate(350,349)"/>
<path d="M0 0 C6.52307692 0.61538462 6.52307692 0.61538462 8.9375 2.5625 C9.288125 3.036875 9.63875 3.51125 10 4 C6.44219804 3.39009109 3.3171411 2.4216319 0 1 C0 0.67 0 0.34 0 0 Z " fill="#2660AC" transform="translate(267,311)"/>
<path d="M0 0 C0.66 0.66 1.32 1.32 2 2 C1.34 3.32 0.68 4.64 0 6 C-0.99 5.67 -1.98 5.34 -3 5 C-2.625 3.0625 -2.625 3.0625 -2 1 C-1.34 0.67 -0.68 0.34 0 0 Z " fill="#205DBC" transform="translate(462,253)"/>
<path d="M0 0 C1.98 0.495 1.98 0.495 4 1 C3.34 2.32 2.68 3.64 2 5 C1.01 4.67 0.02 4.34 -1 4 C-0.67 2.68 -0.34 1.36 0 0 Z " fill="#255DB3" transform="translate(242,179)"/>
<path d="M0 0 C0.66 0 1.32 0 2 0 C1.34 2.31 0.68 4.62 0 7 C-0.66 7 -1.32 7 -2 7 C-1.125 1.125 -1.125 1.125 0 0 Z " fill="#2E71D0" transform="translate(267,122)"/>
<path d="M0 0 C0.66 0 1.32 0 2 0 C1.67 2.97 1.34 5.94 1 9 C0.01 8.67 -0.98 8.34 -2 8 C-1.67 7.4225 -1.34 6.845 -1 6.25 C0.27075898 3.80116138 0.27075898 3.80116138 0 0 Z " fill="#1E5CB8" transform="translate(343,119)"/>
<path d="M0 0 C1.5625 1.75 1.5625 1.75 3 4 C2.6875 6.25 2.6875 6.25 2 8 C-0.14720899 5.85279101 -0.5434221 4.92209857 -1 2 C-0.67 1.34 -0.34 0.68 0 0 Z " fill="#2568CB" transform="translate(367,81)"/>
<path d="M0 0 C0.66 0.99 1.32 1.98 2 3 C1.01 4.98 0.02 6.96 -1 9 C-1.66 9 -2.32 9 -3 9 C-2.01 6.03 -1.02 3.06 0 0 Z " fill="#2F67B8" transform="translate(286,75)"/>
<path d="M0 0 C0.66 0.99 1.32 1.98 2 3 C1.125 6.1875 1.125 6.1875 0 9 C-0.66 8.67 -1.32 8.34 -2 8 C-1.47731534 5.23723823 -0.89130413 2.6739124 0 0 Z " fill="#306BC2" transform="translate(307,25)"/>
</svg>
